<svg id="visual" viewBox="0 0 900 600" width="900" height="600" xmlns="http://www.w3.org/2000/svg" xmlns:xlink="http://www.w3.org/1999/xlink" version="1.1"><rect x="0" y="0" width="900" height="600" fill="#7c3aed"></rect><defs><linearGradient id="grad1_0" x1="33.3%" y1="0%" x2="100%" y2="100%"><stop offset="20%" stop-color="#7c3aed" stop-opacity="1"></stop><stop offset="80%" stop-color="#7c3aed" stop-opacity="1"></stop></linearGradient></defs><defs><linearGradient id="grad2_0" x1="0%" y1="0%" x2="66.7%" y2="100%"><stop offset="20%" stop-color="#7c3aed" stop-opacity="1"></stop><stop offset="80%" stop-color="#7c3aed" stop-opacity="1"></stop></linearGradient></defs><g transform="translate(900, 0)"><path d="M0 486.7C-34.6 480.2 -69.2 473.7 -107 468.9C-144.8 464.2 -185.8 461.2 -207.8 431.6C-229.9 401.9 -233.1 345.5 -251.3 315.1C-269.5 284.6 -302.7 280.1 -333.8 266.2C-365 252.4 -394.2 229.2 -419 201.8C-443.7 174.3 -464 142.6 -474.5 108.3C-485.1 74 -485.9 37 -486.7 0L0 0Z" fill="#6366f1"></path></g><g transform="translate(0, 600)"><path d="M0 -486.7C33.8 -477.9 67.7 -469 106.4 -466C145.1 -463.1 188.6 -466.1 211.2 -438.5C233.8 -411 235.5 -353 259.4 -325.2C283.2 -297.5 329.3 -300.1 349.5 -278.7C369.7 -257.3 364 -212 370.3 -178.3C376.6 -144.7 394.9 -122.8 416.3 -95C437.7 -67.2 462.2 -33.6 486.7 0L0 0Z" fill="#6366f1"></path></g></svg>